# xmcd
#
# Track frame offsets:
#	150
#	5482
#	16697
#	27945
#	36942
#	46480
#	61405
#	78165
#	88892
#	100247
#	112222
#	122135
#	135225
#	151355
#	164947
#	175495
#	187885
#	199980
#	209277
#	219727
#	237205
#	247287
#	260157
#
# Disc length: 3610 seconds
#
# Revision: 0
# Processed by: cddbd v1.5.2PL0 Copyright (c) Steve Scherf et al.
# Submitted via: EasyCDDAExtractor 2010.6.0.0
#
DISCID=520e1817
DTITLE=Various Artist - 군가 및 건전가
DYEAR=1900
DGENRE=
TTITLE0=대한민국 - 국기에 대한 맹세
TTITLE1=유호 - 진짜 사나이
TTITLE2=길옥균 - 영광의 조국
TTITLE3=김동진 - 우리는 육군
TTITLE4=김성용 - 너와 나
TTITLE5=우용삼 - 전선을 간다
TTITLE6=서정모 - 멸공의 횃불
TTITLE7=강춘남 - 선진조국
TTITLE8=최달희 - 육군가
TTITLE9=전 우 - 예비군가
TTITLE10=장두진 - 진군가
TTITLE11=김찬호 - 해군가
TTITLE12=박건호 - 아! 대한민국
TTITLE13=박건호 - 우리의 땅
TTITLE14=이복현 - 전선의 초병
TTITLE15=육군군악학교 - 휘날리는 태극기
TTITLE16=길옥균 - 사랑하는 전우야
TTITLE17=유지만 - 용사의 충정
TTITLE18=김영삼 - 행군의 아침
TTITLE19=김강섭 - 승리의 노래
TTITLE20=조정제 - 용사의 다짐
TTITLE21=김호남 - 힘찬 전진
TTITLE22=조일원 - 맹일병
EXTD=
EXTT0=
EXTT1=
EXTT2=
EXTT3=
EXTT4=
EXTT5=
EXTT6=
EXTT7=
EXTT8=
EXTT9=
EXTT10=
EXTT11=
EXTT12=
EXTT13=
EXTT14=
EXTT15=
EXTT16=
EXTT17=
EXTT18=
EXTT19=
EXTT20=
EXTT21=
EXTT22=
PLAYORDER=
